HIERARCHY
ROOT Hips
{
	OFFSET -0.179506 -22.333345 2.821913
	CHANNELS 6 Xposition Yposition Zposition Zrotation Yrotation Xrotation 
	JOINT LeftUpLeg
	{
		OFFSET 6.951974 -9.140623 -0.681533
		CHANNELS 3 Zrotation Yrotation Xrotation
		JOINT LeftLeg
		{
			OFFSET 3.427654 -37.519855 -0.449580
			CHANNELS 3 Zrotation Yrotation Xrotation
			JOINT LeftFoot
			{
				OFFSET -1.359570 -39.796059 -4.369333
				CHANNELS 3 Zrotation Yrotation Xrotation
				JOINT LeftToe
				{
					OFFSET 2.635814 -5.579078 11.928840
					CHANNELS 3 Zrotation Yrotation Xrotation
					End Site
					{
						OFFSET 0.000000 0.000000 0.000000
					}
				}
			}
		}
	}
	JOINT RightUpLeg
	{
		OFFSET -6.767048 -9.052170 -0.431982
		CHANNELS 3 Zrotation Yrotation Xrotation
		JOINT RightLeg
		{
			OFFSET -3.829005 -38.256897 -0.885003
			CHANNELS 3 Zrotation Yrotation Xrotation
			JOINT RightFoot
			{
				OFFSET 1.577377 -39.841461 -4.231180
				CHANNELS 3 Zrotation Yrotation Xrotation
				JOINT RightToe
				{
					OFFSET -2.537174 -4.814398 12.334795
					CHANNELS 3 Zrotation Yrotation Xrotation
					End Site
					{
						OFFSET 0.000000 0.000000 0.000000
					}
				}
			}
		}
	}
	JOINT Spine
	{
		OFFSET -0.253288 10.896323 -2.669631
		CHANNELS 3 Zrotation Yrotation Xrotation
		JOINT Spine1
		{
			OFFSET 0.548704 13.518043 0.109247
			CHANNELS 3 Zrotation Yrotation Xrotation
			JOINT Spine2
			{
				OFFSET 0.145701 5.292222 2.542457
				CHANNELS 3 Zrotation Yrotation Xrotation
				JOINT Neck
				{
					OFFSET -0.277840 21.387037 -4.285703
					CHANNELS 3 Zrotation Yrotation Xrotation
					JOINT Head
					{
						OFFSET 0.515184 6.496960 5.134897
						CHANNELS 3 Zrotation Yrotation Xrotation
						End Site
						{
							OFFSET 0.000000 0.000000 0.000000
						}
					}
				}
				JOINT LeftShoulder
				{
					OFFSET 7.884473 12.174932 -3.408961
					CHANNELS 3 Zrotation Yrotation Xrotation
					JOINT LeftArm
					{
						OFFSET 9.097692 3.046888 -0.886815
						CHANNELS 3 Zrotation Yrotation Xrotation
						JOINT LeftForeArm
						{
							OFFSET 25.961220 -1.277207 -2.745643
							CHANNELS 3 Zrotation Yrotation Xrotation
							JOINT LeftHand
							{
								OFFSET 24.923361 0.898606 -0.117091
								CHANNELS 3 Zrotation Yrotation Xrotation
								End Site
								{
									OFFSET 0.000000 0.000000 0.000000
								}
							}
						}
					}
				}
				JOINT RightShoulder
				{
					OFFSET -8.175920 11.883285 -3.861528
					CHANNELS 3 Zrotation Yrotation Xrotation
					JOINT RightArm
					{
						OFFSET -9.601238 3.255117 -0.914307
						CHANNELS 3 Zrotation Yrotation Xrotation
						JOINT RightForeArm
						{
							OFFSET -25.374195 -1.332924 -2.140099
							CHANNELS 3 Zrotation Yrotation Xrotation
							JOINT RightHand
							{
								OFFSET -25.529810 0.777228 -0.555919
								CHANNELS 3 Zrotation Yrotation Xrotation
								End Site
								{
									OFFSET 0.000000 0.000000 0.000000
								}
							}
						}
					}
				}
			}
		}
	}
}
MOTION
Frames: 10
Frame Time: 0.033333
-6.099367 16.465078 94.476585 177.537644 0.930664 94.741903 -0.564198 0.887641 1.743551 3.987315 -10.168220 -8.369839 0.647283 16.446727 -7.809915 nan nan nan 0.652274 -2.860673 -1.129007 0.217020 6.774754 -9.851307 6.478069 -12.486425 0.981832 nan nan nan 0.801810 1.303124 1.453232 1.312930 -2.569208 -4.276891 -0.063109 1.437486 -1.862568 -2.393633 -1.092460 8.101043 4.829598 -3.288945 -10.017416 1.681158 11.756112 -10.938659 -13.561886 -11.432931 -4.758594 8.555019 -7.670922 -7.339272 -18.403105 -11.002867 13.019750 -2.886806 -7.434099 -7.913248 13.848894 8.186672 -10.786748 -13.556275 10.258115 -16.373774 14.052801 9.575232 0.032738 
-6.106105 16.452667 94.486671 177.532483 0.954129 94.708297 -0.579544 0.826670 1.798351 3.995478 -10.393254 -8.411435 0.642985 16.364966 -7.706632 nan nan nan 0.662227 -2.828094 -1.082107 0.224476 6.836995 -9.894831 6.479359 -12.519802 1.013463 nan nan nan 0.803363 1.311044 1.404660 1.361936 -2.584842 -4.195006 -0.037053 1.396382 -1.831998 -2.521585 -1.138316 8.196330 4.919565 -3.172867 -10.093647 1.629404 11.758376 -10.941437 -13.470141 -11.352112 -4.536702 8.070933 -8.116825 -7.320562 -18.233036 -11.029262 12.412604 -2.907357 -7.526924 -7.970438 13.697305 7.973646 -10.579873 -13.062196 11.098566 -16.429777 13.872076 9.587020 -0.734894 
-6.118761 16.439816 94.484367 177.539661 0.971569 94.704254 -0.570647 0.821333 1.814385 4.016594 -10.464235 -8.443033 0.622076 16.386225 -7.622351 nan nan nan 0.671521 -2.836842 -1.059985 0.213663 6.865645 -9.967496 6.506426 -12.567835 1.065657 nan nan nan 0.786216 1.322324 1.365605 1.423465 -2.592097 -4.180601 -0.008195 1.376575 -1.749375 -2.611698 -1.195736 8.167859 4.981592 -3.158883 -10.136364 1.683522 11.769479 -10.887367 -13.341361 -11.253778 -4.371334 7.564143 -8.208813 -6.868485 -18.074671 -11.031823 12.350040 -2.874325 -7.595692 -8.023274 13.450060 7.799246 -10.519911 -12.678239 11.490268 -16.269264 13.668585 9.599814 -0.772046 
-6.110073 16.464001 94.456688 177.489601 0.778379 94.831624 -0.704869 0.686166 1.311502 3.806281 -9.683329 -7.964763 0.722177 15.786989 -7.719580 nan nan nan 0.451791 -2.792461 -1.448188 0.269317 6.451006 -9.708876 6.705517 -12.000458 1.004881 nan nan nan 0.927937 1.481502 0.992224 1.900269 -2.746205 -3.733496 -0.124053 1.103605 -2.251355 -4.188725 -1.712184 8.320093 3.875656 -2.977147 -9.084938 -0.635993 11.383078 -11.961291 -11.965024 -10.527341 -1.602275 8.580692 -11.074655 -1.421238 -20.001938 -10.481493 15.722671 1.859351 -7.233674 -11.048352 8.910572 8.393265 -8.259253 -15.256840 12.674017 -15.974576 15.837560 9.145223 0.970578 
-6.127578 16.512527 94.432716 177.505924 0.960227 94.713333 -0.559295 0.794395 1.658723 4.013360 -10.349943 -8.279482 0.620313 16.331874 -7.869183 nan nan nan 0.595262 -2.907909 -1.152726 0.345103 6.727136 -9.937711 6.598732 -12.310544 1.094656 nan nan nan 0.685297 1.568837 1.210268 1.554700 -2.534287 -3.399171 0.047354 1.430625 -2.422026 -2.880343 -1.318511 8.111756 4.906287 -3.581283 -9.933359 0.728725 11.174275 -11.044214 -12.336640 -11.097263 -3.804186 7.495597 -9.109120 -5.828556 -18.873555 -11.082165 14.097010 -1.492726 -6.985705 -8.110437 11.913035 6.624119 -10.120733 -13.239073 11.812389 -17.109095 14.532563 9.949885 -0.611883 
-6.130444 16.497814 94.469292 177.583399 1.105115 94.677958 -0.482257 0.579353 1.758596 4.459155 -10.335316 -8.318455 0.468372 16.227953 -8.006239 nan nan nan 0.778690 -2.716329 -1.011985 0.292056 6.403364 -10.091951 6.899077 -12.280007 0.971001 nan nan nan 0.724739 1.694792 1.636534 1.588668 -2.395692 -4.018553 0.351775 1.344395 -2.365218 -3.108554 -1.328173 8.678562 4.999933 -3.981765 -10.403900 0.874981 10.439755 -11.510353 -12.467600 -10.886682 -4.402779 9.989701 -5.751963 -7.811654 -18.326405 -14.301824 11.698099 -1.990349 -6.299573 -8.490592 12.325968 5.895530 -9.828658 -13.917619 10.858900 -16.763235 14.778461 11.476554 -0.862338 
-6.118819 16.482248 94.491608 177.625309 1.138149 94.735629 -0.459478 0.509517 1.663613 4.512048 -10.308734 -8.266960 0.540823 16.199290 -7.947514 nan nan nan 0.852836 -2.664112 -1.093053 0.258534 6.350629 -10.060684 6.899374 -12.291098 0.942430 nan nan nan 0.712017 1.706945 1.614141 1.617830 -2.395942 -3.955893 0.374338 1.360208 -2.455646 -3.091324 -1.349952 8.705844 5.029207 -4.044809 -10.543603 0.888322 10.409555 -11.505921 -12.559704 -10.882315 -4.334667 10.103185 -5.679692 -7.680871 -18.511056 -14.448747 11.647556 -2.032748 -6.250903 -8.454582 12.402551 5.892199 -9.694213 -14.185537 10.537328 -16.586552 14.938476 11.582426 -0.907131 
-6.113494 16.471189 94.502663 177.669068 1.177010 94.735600 -0.405900 0.512773 1.664619 4.514293 -10.333526 -8.283243 0.554901 16.197665 -7.890040 nan nan nan 0.906236 -2.665602 -1.116752 0.286701 6.339707 -10.006931 6.893533 -12.314906 0.869234 nan nan nan 0.721515 1.711021 1.616581 1.625752 -2.367310 -3.951094 0.397208 1.370422 -2.410532 -3.055547 -1.395534 8.657262 5.036461 -4.090652 -10.615926 0.884957 10.417720 -11.528862 -12.597357 -10.953801 -4.342664 10.093543 -5.673005 -7.614007 -18.526594 -14.273842 11.686804 -2.075530 -6.292376 -8.425843 12.429613 5.859121 -9.732407 -14.209917 10.598195 -16.662775 14.958691 11.500138 -1.137911 
-6.107835 16.419365 94.508385 177.797117 1.210915 94.775534 -0.327701 0.323492 1.572705 4.420046 -10.442398 -8.231063 0.721631 16.385140 -7.804244 nan nan nan 0.980501 -2.621004 -1.132700 0.254789 6.350766 -10.038359 6.860531 -12.552740 0.849138 nan nan nan 0.665845 1.553699 1.822711 1.846464 -2.542840 -4.990298 0.367274 1.165878 -1.721568 -3.515009 -2.020961 9.124595 5.200898 -3.081697 -10.746134 1.246721 11.328861 -11.696370 -13.228825 -11.428385 -4.670757 10.055432 -5.575166 -7.021484 -18.890607 -13.409872 11.258142 -2.206644 -8.165361 -10.219366 12.655681 9.291728 -11.447077 -13.014691 9.824837 -15.285397 15.721499 9.873880 1.613478 
-6.112249 16.396662 94.508293 177.810957 1.200697 94.736618 -0.352143 0.336317 1.660269 4.453104 -10.440236 -8.314952 0.731501 16.288604 -7.680707 nan nan nan 1.000436 -2.614459 -1.041202 0.190967 6.337062 -10.097027 6.874213 -12.593607 0.844439 nan nan nan 0.667394 1.505150 1.858491 1.839992 -2.572954 -5.162205 0.370051 1.165675 -1.506514 -3.532376 -1.982452 9.097955 5.234162 -3.021744 -10.793562 1.392065 11.388553 -11.665165 -13.357159 -11.357668 -4.750273 9.887009 -5.461558 -7.376792 -19.257090 -13.530249 10.807672 -2.293192 -8.183255 -10.219530 12.708221 9.581278 -11.710357 -12.962997 9.610259 -15.416350 15.995926 9.684296 1.772379 
